# Exported from ProBuilder
# http://www.procore3d.com/probuilder
# 7/28/2019 12:21:44 PM

mtllib ./Field.mtl
o Field

g Field
v 8.5 -2.00005 6
v -8.5 -2.00005 6
v 8.5 -4.994869E-05 6
v -8.5 -4.994869E-05 6
v -8.5 -2.00005 6
v -8.5 -2.00005 -6
v -8.5 -4.994869E-05 6
v -8.5 -4.994869E-05 -6
v -8.5 -2.00005 -6
v 8.5 -2.00005 -6
v -8.5 -4.994869E-05 -6
v 8.5 -4.994869E-05 -6
v 8.5 -2.00005 -6
v 8.5 -2.00005 6
v 8.5 -4.994869E-05 -6
v 8.5 -4.994869E-05 6
v 7.5 -1.00005 5
v -7.5 -1.00005 5
v 7.5 -1.00005 -5
v -7.5 -1.00005 -5
v 8.5 -2.00005 -6
v -8.5 -2.00005 -6
v 8.5 -2.00005 6
v -8.5 -2.00005 6
v 8.5 -4.994869E-05 6
v -8.5 -4.994869E-05 6
v 7.5 4.994869E-05 5
v -7.5 4.994869E-05 5
v 8.5 -4.994869E-05 -6
v 8.5 -4.994869E-05 6
v 7.5 4.994869E-05 -5
v 7.5 4.994869E-05 5
v -8.5 -4.994869E-05 6
v -8.5 -4.994869E-05 -6
v -7.5 4.994869E-05 5
v -7.5 4.994869E-05 -5
v -8.5 -4.994869E-05 -6
v 8.5 -4.994869E-05 -6
v -7.5 4.994869E-05 -5
v 7.5 4.994869E-05 -5
v 7.5 4.994869E-05 5
v -7.5 4.994869E-05 5
v 7.5 -1.00005 5
v -7.5 -1.00005 5
v 7.5 4.994869E-05 -5
v 7.5 4.994869E-05 5
v 7.5 -1.00005 -5
v 7.5 -1.00005 5
v -7.5 4.994869E-05 5
v -7.5 4.994869E-05 -5
v -7.5 -1.00005 5
v -7.5 -1.00005 -5
v -7.5 4.994869E-05 -5
v 7.5 4.994869E-05 -5
v -7.5 -1.00005 -5
v 7.5 -1.00005 -5

vn 0 0 1
vn 0 0 1
vn 0 0 1
vn 0 0 1
vn -1 0 0
vn -1 0 0
vn -1 0 0
vn -1 0 0
vn 0 0 -1
vn 0 0 -1
vn 0 0 -1
vn 0 0 -1
vn 1 0 0
vn 1 0 0
vn 1 0 0
vn 1 0 0
vn 0 1 0
vn 0 1 0
vn 0 1 0
vn 0 1 0
vn 0 -1 0
vn 0 -1 0
vn 0 -1 0
vn 0 -1 0
vn 0 1 9.989738E-05
vn 0 1 9.989738E-05
vn 0 1 9.989739E-05
vn 0 1 9.989738E-05
vn 9.989738E-05 1 0
vn 9.989738E-05 1 0
vn 9.989738E-05 1 0
vn 9.989738E-05 1 0
vn -9.989738E-05 1 0
vn -9.989738E-05 1 0
vn -9.989738E-05 1 0
vn -9.989738E-05 1 0
vn 0 1 -9.989738E-05
vn 0 1 -9.989738E-05
vn 0 1 -9.989739E-05
vn 0 1 -9.989738E-05
vn 0 0 -1
vn 0 0 -1
vn 0 0 -1
vn 0 0 -1
vn -0.9999999 0 0
vn -0.9999999 0 0
vn -0.9999999 0 0
vn -0.9999999 0 0
vn 0.9999999 0 0
vn 0.9999999 0 0
vn 0.9999999 0 0
vn 0.9999999 0 0
vn 0 0 1
vn 0 0 1
vn 0 0 1
vn 0 0 1

vt 8.5 -1.00005
vt -8.5 -1.00005
vt 8.5 0.9999501
vt -8.5 0.9999501
vt 6 -1.00005
vt -6 -1.00005
vt 6 0.9999501
vt -6 0.9999501
vt 8.5 -1.00005
vt -8.5 -1.00005
vt 8.5 0.9999501
vt -8.5 0.9999501
vt 6 -1.00005
vt -6 -1.00005
vt 6 0.9999501
vt -6 0.9999501
vt -7.5 5
vt 7.5 5
vt -7.5 -5
vt 7.5 -5
vt 8.5 -6
vt -8.5 -6
vt 8.5 6
vt -8.5 6
vt -8.5 5.9999
vt 8.5 5.9999
vt -7.5 4.9999
vt 7.5 4.9999
vt -8.4999 -6
vt -8.4999 6
vt -7.4999 -5
vt -7.4999 5
vt 8.4999 6
vt 8.4999 -6
vt 7.4999 5
vt 7.4999 -5
vt 8.5 -5.9999
vt -8.5 -5.9999
vt 7.5 -4.9999
vt -7.5 -4.9999
vt -7.5 1.00005
vt 7.5 1.00005
vt -7.5 -4.994869E-05
vt 7.5 -4.994869E-05
vt -5 1.00005
vt 5 1.00005
vt -5 -4.994869E-05
vt 5 -4.994869E-05
vt -5 1.00005
vt 5 1.00005
vt -5 -4.994869E-05
vt 5 -4.994869E-05
vt -7.5 1.00005
vt 7.5 1.00005
vt -7.5 -4.994869E-05
vt 7.5 -4.994869E-05

g Field
usemtl Field
f 3/3/3 4/4/4 2/2/2 1/1/1
f 7/7/7 8/8/8 6/6/6 5/5/5
f 11/11/11 12/12/12 10/10/10 9/9/9
f 15/15/15 16/16/16 14/14/14 13/13/13
f 19/19/19 20/20/20 18/18/18 17/17/17
f 23/23/23 24/24/24 22/22/22 21/21/21
f 27/27/27 28/28/28 26/26/26 25/25/25
f 31/31/31 32/32/32 30/30/30 29/29/29
f 35/35/35 36/36/36 34/34/34 33/33/33
f 39/39/39 40/40/40 38/38/38 37/37/37
f 43/43/43 44/44/44 42/42/42 41/41/41
f 47/47/47 48/48/48 46/46/46 45/45/45
f 51/51/51 52/52/52 50/50/50 49/49/49
f 55/55/55 56/56/56 54/54/54 53/53/53

